<?xml version="1.0" standalone="no"?>
<!DOCTYPE svg PUBLIC "-//W3C//DTD SVG 1.1//EN" "http://www.w3.org/Graphics/SVG/1.1/DTD/svg11.dtd">
<svg width="100%" height="100%" viewBox="0 0 2208 1242" version="1.1" xmlns="http://www.w3.org/2000/svg" xmlns:xlink="http://www.w3.org/1999/xlink" xml:space="preserve" style="fill-rule:evenodd;clip-rule:evenodd;stroke-linejoin:round;stroke-miterlimit:1.41421;">
    <g transform="matrix(1.0091,-5.51488e-18,-5.51488e-18,1.03161,-27.1781,-19.3234)">
        <rect x="26.933" y="18.731" width="2188.09" height="1203.94" style="fill:rgb(237,18,91);"/>
    </g>
    <g id="Layer1" transform="matrix(1,0,0,1,680.727,442.375)">
        <g transform="matrix(0.998017,1.89459e-19,1.89459e-19,0.997244,-0.727157,0.625317)">
            <rect x="0" y="0" width="228.453" height="178.492" style="fill:rgb(253,252,253);"/>
        </g>
        <g transform="matrix(0.998416,-3.88064e-19,-3.88064e-19,1,-0.727157,0.625317)">
            <path d="M841.333,35.451C841.333,15.872 825.462,0 805.883,0L35.451,0C15.872,0 0,15.872 0,35.451L0,320.549C0,340.128 15.872,356 35.451,356L805.883,356C825.462,356 841.333,340.128 841.333,320.549L841.333,35.451Z" style="fill:rgb(253,252,253);"/>
        </g>
        <g>
            <path d="M71.167,40.18L103.604,40.18L103.604,200.118L190.229,114.805L233.354,114.805L156.479,189.993L237.667,315.618L194.542,315.618L131.917,214.368L103.604,240.243L103.604,315.618L71.167,315.618L71.167,40.18Z" style="fill:rgb(237,18,91);fill-rule:nonzero;"/>
            <path d="M389.635,268.462C397.948,251.524 402.104,232.68 402.104,211.93C402.104,193.18 399.104,177.93 393.104,166.18C383.604,147.68 367.229,138.43 343.979,138.43C323.354,138.43 308.354,146.305 298.979,162.055C289.604,177.805 284.917,196.805 284.917,219.055C284.917,240.43 289.604,258.243 298.979,272.493C308.354,286.743 323.229,293.868 343.604,293.868C365.979,293.868 381.323,285.399 389.635,268.462ZM410.542,134.868C428.417,152.118 437.354,177.493 437.354,210.993C437.354,243.368 429.479,270.118 413.729,291.243C397.979,312.368 373.542,322.93 340.417,322.93C312.792,322.93 290.854,313.587 274.604,294.899C258.354,276.212 250.229,251.118 250.229,219.618C250.229,185.868 258.792,158.993 275.917,138.993C293.042,118.993 316.042,108.993 344.917,108.993C370.792,108.993 392.667,117.618 410.542,134.868Z" style="fill:rgb(237,18,91);fill-rule:nonzero;"/>
            <path d="M478.417,114.805L510.479,114.805L510.479,149.493C513.104,142.743 519.542,134.524 529.792,124.837C540.042,115.149 551.854,110.305 565.229,110.305C565.854,110.305 566.917,110.368 568.417,110.493C569.917,110.618 572.479,110.868 576.104,111.243L576.104,146.868C574.104,146.493 572.26,146.243 570.573,146.118C568.885,145.993 567.042,145.93 565.042,145.93C548.042,145.93 534.979,151.399 525.854,162.337C516.729,173.274 512.167,185.868 512.167,200.118L512.167,315.618L478.417,315.618L478.417,114.805Z" style="fill:rgb(237,18,91);fill-rule:nonzero;"/>
            <path d="M640.417,271.555C649.542,286.055 664.167,293.305 684.292,293.305C699.917,293.305 712.76,286.587 722.823,273.149C732.885,259.712 737.917,240.43 737.917,215.305C737.917,189.93 732.729,171.149 722.354,158.962C711.979,146.774 699.167,140.68 683.917,140.68C666.917,140.68 653.135,147.18 642.573,160.18C632.01,173.18 626.729,192.305 626.729,217.555C626.729,239.055 631.292,257.055 640.417,271.555ZM716.167,120.993C722.167,124.743 728.979,131.305 736.604,140.68L736.604,39.243L769.042,39.243L769.042,315.618L738.667,315.618L738.667,287.68C730.792,300.055 721.479,308.993 710.729,314.493C699.979,319.993 687.667,322.743 673.792,322.743C651.417,322.743 632.042,313.337 615.667,294.524C599.292,275.712 591.104,250.68 591.104,219.43C591.104,190.18 598.573,164.837 613.51,143.399C628.448,121.962 649.792,111.243 677.542,111.243C692.917,111.243 705.792,114.493 716.167,120.993Z" style="fill:rgb(237,18,91);fill-rule:nonzero;"/>
        </g>
    </g>
</svg>
